# xmcd
#
# Track frame offsets:
#	150
#	10831
#	27111
#	44017
#	59171
#	72864
#	85926
#	101446
#	121435
#	134336
#	155658
#	173767
#	185582
#
# Disc length: 2673 seconds
#
# Revision: 0
# Processed by: cddbd v1.5.2PL0 Copyright (c) Steve Scherf et al.
# Submitted via: EZCDAudioConverter 5.0.0.1
#
DISCID=b40a6f0d
DTITLE=Kindred The Family Soul - Legacy of Love
DYEAR=2016
DGENRE=R&B
TTITLE0=Love Is Pt1
TTITLE1=Welcome To My World
TTITLE2=All My People
TTITLE3=Get There
TTITLE4=Nobody Like You
TTITLE5=Where Do We Go
TTITLE6=Never Know
TTITLE7=Legacy of Love
TTITLE8=Going All The Way
TTITLE9=Another One
TTITLE10=Moving On
TTITLE11=Love Is  Outro
TTITLE12=All My People (remix)
EXTD=
EXTT0=
EXTT1=
EXTT2=
EXTT3=
EXTT4=
EXTT5=
EXTT6=
EXTT7=
EXTT8=
EXTT9=
EXTT10=
EXTT11=
EXTT12=
PLAYORDER=
